<svg width="1093" height="1093" viewBox="0 0 1093 1093" fill="none" xmlns="http://www.w3.org/2000/svg">
<g clip-path="url(#clip0_21_2)">
<mask id="mask0_21_2" style="mask-type:luminance" maskUnits="userSpaceOnUse" x="56" y="56" width="981" height="981">
<path d="M829.253 56.5122L56.5122 263.567L263.567 1036.31L1036.31 829.253L829.253 56.5122Z" fill="white"/>
</mask>
<g mask="url(#mask0_21_2)">
<path d="M748.89 421.826C729.86 425.032 712.999 436.121 702.629 452.258C701.349 454.252 700.178 456.306 699.119 458.403C683.711 441.981 661.122 433.289 638.498 437.094C619.468 440.3 602.606 451.39 592.237 467.526C590.956 469.521 589.785 471.574 588.727 473.671C575.275 459.337 556.353 450.894 536.711 451.511C560.21 411.087 567.661 362.014 555.095 315.114C529.572 219.866 431.316 163.139 336.067 188.661C240.818 214.183 184.092 312.438 209.614 407.686C228.338 477.568 287.943 529.444 359.222 538.771L379.099 612.958L340.207 660.203C317.164 688.196 315.105 727.333 335.081 757.586L420.653 887.194C456.568 941.585 522.995 966.796 585.952 949.927L783.457 897.006C863.982 875.43 911.939 792.364 890.362 711.841L826.58 473.8C817.228 438.897 783.103 416.07 748.89 421.826ZM234.648 400.978C212.825 319.535 261.331 235.519 342.776 213.697C424.219 191.874 508.235 240.38 530.058 321.824C545.121 378.04 526.577 437.916 483.701 475.938L474.931 443.209C502.151 412.332 512.405 369.434 501.685 329.426C484.054 263.627 416.177 224.438 350.378 242.069C284.579 259.7 245.39 327.577 263.021 393.376C273.74 433.381 304.071 465.406 343.081 478.538L351.852 511.268C295.712 499.776 249.711 457.194 234.648 400.978ZM371.204 294.061C352.172 297.265 335.311 308.353 324.944 324.492C314.567 340.641 311.463 360.534 316.428 379.066L334.483 446.445C311.913 433.686 294.909 412.242 288.056 386.668C274.124 334.673 305.091 281.036 357.086 267.104C409.082 253.172 462.717 284.139 476.65 336.135C483.504 361.712 479.498 388.783 466.331 411.118L448.893 346.034C439.542 311.13 405.417 288.301 371.204 294.061ZM776.748 871.968L579.242 924.89C527.076 938.869 472.037 917.98 442.281 872.913L356.71 743.307C343.039 722.607 344.45 695.83 360.217 676.678L387.344 643.724L416.603 752.922C418.455 759.834 425.56 763.939 432.475 762.085C439.389 760.233 443.491 753.128 441.639 746.214L341.464 372.358C338.384 360.862 340.309 348.521 346.748 338.503C353.273 328.349 363.493 321.639 375.506 319.62C396.689 316.054 417.928 330.602 423.859 352.74L494.797 617.484C496.649 624.396 503.754 628.5 510.669 626.646C517.583 624.794 521.686 617.689 519.833 610.774L498.367 530.664C495.287 519.167 497.213 506.827 503.651 496.809C510.175 486.657 520.381 479.941 532.408 477.926C553.591 474.362 574.83 488.91 580.762 511.048L583.725 522.103L605.19 602.214C607.042 609.127 614.146 613.231 621.061 611.378C627.977 609.525 632.078 602.421 630.225 595.507L608.76 515.395C605.68 503.899 607.606 491.558 614.043 481.542C620.568 471.388 630.774 464.672 642.801 462.658C663.983 459.093 685.222 473.642 691.154 495.779L694.116 506.832L715.581 586.943C717.434 593.856 724.538 597.96 731.453 596.106C738.369 594.254 742.469 587.149 740.617 580.235L719.151 500.124C716.071 488.627 717.996 476.287 724.435 466.27C730.959 456.117 741.165 449.401 753.193 447.386C774.374 443.822 795.613 458.37 801.545 480.508L865.327 718.545L865.332 718.544C883.206 785.266 843.47 854.091 776.748 871.968Z" fill="black"/>
</g>
</g>
<defs>
<clipPath id="clip0_21_2">
<rect width="1093" height="1093" fill="white"/>
</clipPath>
</defs>
</svg>
